<?xml version="1.0" standalone="no"?>
<!DOCTYPE svg PUBLIC "-//W3C//DTD SVG 20010904//EN"
 "http://www.w3.org/TR/2001/REC-SVG-20010904/DTD/svg10.dtd">
<svg version="1.0" xmlns="http://www.w3.org/2000/svg"
 width="1000.000000pt" height="1000.000000pt" viewBox="0 0 1000.000000 1000.000000"
 preserveAspectRatio="xMidYMid meet">

<g transform="translate(0.000000,1000.000000) scale(0.100000,-0.100000)"
fill="#000000" stroke="none">
<path d="M4770 9634 c-275 -14 -606 -63 -880 -130 -1701 -420 -3027 -1774
-3408 -3484 -79 -353 -105 -600 -106 -1000 0 -311 7 -432 45 -690 192 -1302
941 -2469 2052 -3194 601 -393 1260 -631 1997 -723 184 -23 839 -26 1015 -5
676 82 1257 271 1813 590 376 216 648 426 977 756 379 380 663 778 891 1251
230 479 378 1001 436 1535 21 195 17 804 -6 995 -105 878 -443 1687 -989 2370
-712 890 -1747 1495 -2867 1674 -272 44 -702 68 -970 55z m422 -656 c-22 -85
-25 -199 -8 -278 26 -122 65 -189 185 -314 183 -191 281 -386 307 -608 8 -65
17 -71 62 -33 37 31 66 97 87 200 9 44 17 81 19 82 9 9 73 -169 104 -287 34
-130 35 -142 36 -320 1 -208 -9 -263 -69 -385 -72 -147 -174 -244 -337 -323
-54 -26 -97 -52 -98 -58 0 -6 12 -38 26 -70 15 -33 119 -270 231 -529 112
-258 206 -474 209 -480 2 -5 -79 -93 -180 -194 -167 -166 -186 -183 -202 -170
-9 8 -48 32 -86 54 l-70 40 -105 265 c-57 146 -127 325 -155 398 -33 87 -54
129 -59 120 -7 -12 -228 -542 -308 -738 -21 -51 -28 -59 -88 -89 l-65 -34
-165 165 -165 166 110 253 c252 581 341 786 355 821 l16 38 -77 40 c-206 108
-339 280 -390 504 -21 95 -20 295 2 400 10 43 36 129 58 190 70 195 77 247 43
330 -7 16 -5 17 16 11 82 -25 164 -93 215 -180 l26 -45 22 28 c94 115 136 279
134 527 0 103 3 132 26 200 36 114 94 197 188 268 37 28 151 87 157 82 2 -3
-1 -24 -7 -47z m1073 -3168 c-16 -17 -33 -30 -39 -30 -5 0 5 16 24 35 18 19
36 32 39 30 2 -3 -8 -19 -24 -35z m-2273 13 c30 -36 30 -47 0 -19 -18 17 -32
31 -32 33 0 9 19 1 32 -14z m2223 -158 c-31 -93 -37 -97 -84 -50 l-41 39 52
53 c52 53 52 53 72 33 20 -20 20 -20 1 -75z m-2105 30 l54 -55 -34 -35 -34
-35 -22 22 c-11 13 -31 49 -42 81 -25 66 -26 70 -13 62 5 -3 12 -1 16 5 10 17
19 12 75 -45z m1999 -109 c31 -32 42 -49 37 -62 -6 -15 -15 -10 -58 33 -28 28
-48 56 -44 62 11 18 19 14 65 -33z m-1903 13 c3 -6 -13 -31 -37 -55 -33 -34
-46 -41 -56 -32 -11 9 -6 19 29 55 45 45 53 50 64 32z m1854 -64 l34 -35 -194
-195 c-107 -107 -199 -195 -205 -195 -12 1 -75 57 -75 67 0 12 384 393 395
393 6 0 26 -16 45 -35z m-1637 -153 l179 -179 -39 -31 -39 -31 -177 177 -177
177 32 33 c18 17 35 32 38 32 3 0 85 -80 183 -178z m9 -202 l196 -200 -44
-102 c-24 -57 -93 -220 -152 -363 l-109 -260 -291 -3 c-209 -2 -292 1 -292 9
0 9 291 687 420 979 23 52 46 105 51 118 5 12 12 22 17 22 5 0 97 -90 204
-200z m1646 90 c22 -52 95 -221 162 -375 181 -416 270 -624 270 -635 0 -16
-677 -13 -687 3 -4 6 -65 156 -135 332 -116 294 -125 321 -110 338 8 9 18 17
23 17 4 0 21 -23 39 -50 18 -28 41 -55 51 -60 52 -29 119 8 119 65 0 20 -16
55 -45 100 l-46 69 153 153 c84 84 156 149 159 145 4 -4 25 -50 47 -102z
m-787 31 c82 -21 176 -64 248 -114 25 -17 40 -32 33 -35 -6 -2 -31 10 -54 26
-105 72 -222 116 -351 132 -82 10 -138 7 -277 -15 -35 -5 -35 -5 -5 5 100 34
278 34 406 1z m-481 -31 c-8 -5 -19 -10 -25 -10 -5 0 -3 5 5 10 8 5 20 10 25
10 6 0 3 -5 -5 -10z m-41 -14 c-2 -2 -15 -9 -29 -15 -24 -11 -24 -11 -6 3 16
13 49 24 35 12z m464 -28 c27 -5 46 -12 44 -14 -2 -3 -28 1 -57 7 -31 7 -100
9 -164 7 -165 -7 -281 -51 -417 -157 l-26 -20 -32 33 -32 33 40 33 c38 30 41
30 39 10 -2 -12 5 -27 14 -33 14 -9 33 -3 95 30 160 85 322 108 496 71z m-523
-3 c0 -2 -10 -9 -22 -15 -22 -11 -22 -10 -4 4 21 17 26 19 26 11z m145 -275
l129 -129 -17 -36 c-9 -20 -17 -43 -17 -53 0 -10 -63 46 -155 138 l-155 155
32 27 c18 15 38 28 43 28 6 0 69 -58 140 -130z m685 68 c17 -12 30 -27 30 -33
0 -5 -63 -73 -140 -150 -101 -100 -140 -134 -140 -120 0 11 -9 38 -19 60 l-19
40 112 113 c61 61 119 112 129 112 10 0 31 -10 47 -22z m200 -40 c45 -69 46
-74 23 -100 -29 -33 -62 -19 -92 39 -9 18 -9 22 2 17 14 -5 47 20 47 36 0 5
-12 22 -26 39 -20 24 -22 31 -10 31 9 0 34 -28 56 -62z m-565 -152 c34 -14 75
-67 75 -95 0 -12 -3 -12 -12 -3 -7 7 -21 12 -32 12 -12 0 -30 7 -40 15 -25 19
-70 19 -85 1 -15 -18 -81 -26 -81 -10 0 20 42 66 74 80 40 17 59 17 101 0z
m-45 -116 c0 -5 -2 -10 -4 -10 -3 0 -8 5 -11 10 -3 6 -1 10 4 10 6 0 11 -4 11
-10z m103 -63 c-25 -43 -83 -71 -130 -62 -38 7 -103 62 -103 87 0 18 55 12 85
-8 26 -18 59 -18 75 1 7 8 26 15 42 15 18 0 31 6 36 18 6 16 7 16 10 -1 2 -9
-5 -32 -15 -50z m1737 -766 c219 -5 355 -12 373 -19 23 -10 27 -17 27 -52 l0
-40 -778 0 c-428 0 -921 -3 -1095 -7 -299 -6 -317 -7 -317 -25 0 -17 27 -18
693 -19 380 0 807 -2 947 -5 140 -2 299 -4 353 -4 l97 0 0 -69 0 -70 -42 -5
c-478 -59 -766 -133 -1059 -274 -373 -179 -548 -407 -550 -716 0 -82 3 -100
21 -126 12 -16 16 -30 10 -30 -44 0 1 -78 114 -198 131 -138 297 -253 516
-358 63 -31 122 -59 130 -63 12 -7 16 -35 18 -145 l3 -136 -272 0 -271 0 -96
55 c-110 63 -211 104 -350 143 -90 25 -112 27 -287 27 -174 0 -199 -2 -297
-27 -129 -33 -256 -81 -381 -144 l-92 -47 -287 -5 -288 -4 0 143 0 144 84 38
c181 83 362 206 487 332 95 96 193 233 178 251 -6 8 -5 21 2 37 9 20 9 37 0
74 -21 82 -61 142 -158 233 l-93 88 0 291 c0 280 -1 291 -19 291 -24 0 -29
-42 -35 -338 -2 -118 -8 -217 -12 -222 -17 -15 -134 8 -192 36 l-57 29 -5 245
c-4 214 -7 245 -21 248 -13 2 -17 -12 -22 -89 -4 -51 -7 -153 -7 -227 l0 -135
-147 6 c-366 16 -734 146 -1095 387 -136 90 -353 258 -345 267 3 2 139 -1 304
-8 184 -7 484 -10 785 -7 424 5 489 7 502 21 9 9 16 22 16 30 0 10 15 17 43
22 126 19 281 47 289 51 4 3 8 34 8 70 l0 64 1163 -1 c639 0 1317 -4 1507 -8z
m-1096 -1642 c50 -33 166 -97 257 -141 164 -81 166 -82 205 -142 21 -32 41
-64 43 -69 7 -18 -271 133 -387 210 -111 73 -255 203 -302 273 -22 31 -18 29
34 -18 32 -29 99 -80 150 -113z m-1403 104 c-14 -27 -168 -173 -238 -226 -81
-62 -199 -135 -301 -186 -45 -23 -83 -41 -86 -41 -2 0 8 29 23 65 l28 65 174
86 c168 83 344 189 383 233 23 26 30 27 17 4z"/>
<path d="M5124 8002 c-70 -39 -123 -100 -150 -173 -9 -26 -19 -99 -24 -180 -6
-117 -11 -144 -35 -197 -30 -68 -55 -97 -63 -73 -12 36 -108 121 -137 121 -3
0 -3 -19 0 -43 5 -33 -1 -63 -29 -145 -64 -186 -68 -315 -15 -457 19 -51 110
-167 122 -155 2 3 27 59 55 125 176 416 261 600 278 600 12 0 26 -20 45 -65
15 -36 82 -191 149 -345 67 -154 127 -292 133 -307 6 -16 17 -28 23 -28 25 0
122 120 145 177 36 92 38 267 5 394 -13 53 -33 116 -44 140 l-19 44 -12 -60
c-14 -64 -42 -119 -66 -128 -10 -5 -16 6 -21 41 -18 123 -84 249 -188 360 -47
51 -80 96 -92 127 -19 52 -25 153 -12 213 9 37 -1 40 -48 14z"/>
<path d="M5060 2359 c-180 -17 -330 -98 -487 -262 -104 -108 -203 -254 -182
-268 21 -13 20 -13 64 49 66 94 242 261 331 314 256 154 499 138 749 -49 86
-64 189 -170 258 -264 46 -63 45 -63 66 -50 37 23 -192 302 -325 397 -144 103
-310 150 -474 133z"/>
</g>
</svg>
