<?xml version="1.0" encoding="UTF-8"?>
<svg xmlns="http://www.w3.org/2000/svg" xml:space="preserve" width="300mm" height="300mm" viewBox="0 0 300 300"><g transform="matrix(.95262 0 0 .95262 7.828 6.753)"><circle cx="149.168" cy="150" r="148.336" style="fill:#0c0c10;fill-opacity:1;stroke:#eed9c4;stroke-width:5.29167;stroke-dasharray:none;stroke-opacity:1"/><path d="M175.676 54.37c-.853 10.414-4.877 10.509-4.877 10.509-.41-7.789-4.035-14.06-6.58-17.554-1.09-1.495-2.374-2.83-3.778-4.032-9.125-7.819-4.625-19.884-4.625-19.884-13.137 4.545-12.143 17.47-12.143 17.47.996 12.274-4.827 17.538-4.827 17.538-3.623-7.243-8.31-7.2-8.31-7.2 1.533 2.47.94 5.403.178 7.418-1.276 3.38-2.626 6.447-3.197 9.897v-.003c-1.119 6.501-.258 10.333-.258 10.333h.001c1.834 13.55 12.835 18.444 18.017 19.959-3.098-1.674-6.624-4.824-7.4-10.57h-.002s-.112-.497-.163-1.422c-.06-1.06-.041-2.689.317-4.773l.001.001c.298-1.802.95-3.43 1.62-5.16.1-.255.198-.514.297-.775.457-1.209.813-2.966-.106-4.447 0 0 2.81-.027 4.981 4.316 0 0 3.494-3.157 2.895-10.517 0 0-.595-7.75 7.283-10.474 0 0-2.7 7.234 2.773 11.922a14.36 14.36 0 0 1 2.265 2.418c1.527 2.095 3.7 5.856 3.946 10.527 0 0 2.414-.057 2.924-6.302 0 0 8.825 17.564-4.01 24.841a30.485 30.485 0 0 0 3.645-1.37c24.924-11.233 9.133-42.666 9.133-42.666" style="fill:#eed9c4;fill-opacity:1;fill-rule:nonzero;stroke:none;stroke-width:.00348188;stroke-opacity:1"/><path d="M176.156 250.207c-14.421-20.426-31.545-20.426-45.966 0 12.604-21.696 33.362-21.696 45.966 0zm-60.232-57.725c-15.902.724-32.315.646-49.237-.233-2.607-.136-2.36.367-.329 2.105 16.158 13.821 32.832 20.497 50.024 20.028.166-6.32.348-14.76.348-14.76.261 6.793.13 15.501.13 15.501 2.439 2.13 5.559 3.044 9.362 2.743.464-8.737.522-18.504.522-18.504.08 9.056.13 18.982.13 18.982 5.461 3.936 8.19 7.695 8.186 11.277-1.907 3.513-6.173 6.88-12.8 10.102-2.926 1.584-5.654 2.89-8.186 3.918l-2.572 6.08c8.798-3.944 18.799-10.122 23.65-18.335-5.07 9.331-14.842 15.32-23.952 19.2v10.036l18.636-.262c16.493-8.835 30.266-10.343 47.022.087h18.025l-.083-9.554c-9.406-3.913-19.728-9.67-25.468-19.028 5.716 9.026 16.644 14.252 25.24 18.23l-4.217-6.367c-12.453-5.507-19.477-10.354-21.073-14.542-.746-9.658 3.696-17.176 13.323-22.554 9.868-5.671 22.727-9.213 38.575-10.624l.174-5.747C178.177 190.261 155 190 155 190c45.746-.58 69.489-.348 69.489-.348l-.088-3.788-5.311-.958c-30.555-.044-61.11-.123-91.666-.13-1.042 0-.879.228-.898 1.434-.028 1.852-.066 2.854-.066 2.854-3.88.859-6.784 1.231-9.45 1.637-.774.118-.979.155-1.03.68-.02.216-.044.659-.056 1.1" style="fill:#eed9c4;fill-opacity:1;fill-rule:evenodd;stroke:#0c0c10;stroke-width:1.17468;stroke-dasharray:none;stroke-opacity:1"/><path d="m152.657 73.93-43.372 99.938h18.681l24.23-58.19 22.93 58.19h21.947l-43.37-99.937ZM150 140v.25c.05.001.096.007.139.02z" style="font-size:130.637px;font-family:&quot;Josefin Sans&quot;;-inkscape-font-specification:&quot;Josefin Sans, @wght=700&quot;;font-variation-settings:&quot;wght&quot;700;fill:#eed9c4;stroke-width:1.40162"/><path d="M213.492 134.346h-2.825l-2.826-5.69V74.822c0-3.12 2.53-5.65 5.651-5.65v65.174" style="fill:#eed9c4;fill-opacity:1;fill-rule:nonzero;stroke:#0c0c10;stroke-width:1.32292;stroke-dasharray:none;stroke-opacity:1" transform="rotate(-135 183.644 114.252) scale(.81139)"/><path d="m211.702 138.147.895 1.377.895-1.377v-4.543h-1.79v4.543M276.712 74.817l1.377-.895-1.377-.895h-4.544v1.79h4.544M219.137 74.816a5.645 5.645 0 1 1-11.29 0 5.645 5.645 0 0 1 11.29 0" style="fill:#eed9c4;fill-opacity:1;fill-rule:nonzero;stroke:#0c0c10;stroke-width:1.32292;stroke-dasharray:none;stroke-opacity:1" transform="rotate(-135 183.644 114.252) scale(.81139)"/><path d="M273.08 73.254v-1.257l-5.748-2.624h-51.454c2.198.706 3.715 2.823 3.715 5.292h-.043 52.824v-1.411h.706" style="fill:#eed9c4;fill-opacity:1;fill-rule:nonzero;stroke:#0c0c10;stroke-width:1.32292;stroke-dasharray:none;stroke-opacity:1" transform="rotate(-135 183.644 114.252) scale(.81139)"/><path d="M264.709 68.262h-2.892v6.555h2.892v-6.555M207.11 126.523h6.703v-2.822h-6.703v2.822M216.497 71.88a.54.54 0 0 0-.765 0l-2.536 2.537.764.764 2.537-2.536a.54.54 0 0 0 0-.764M210.66 77.717a.54.54 0 0 0 .764 0l2.536-2.536-.764-.764-2.536 2.536a.54.54 0 0 0 0 .764" style="fill:#eed9c4;fill-opacity:1;fill-rule:nonzero;stroke:#0c0c10;stroke-width:1.32292;stroke-dasharray:none;stroke-opacity:1" transform="rotate(-135 183.644 114.252) scale(.81139)"/><path d="M214.812 76.032a1.745 1.745 0 1 1-2.467-2.468 1.745 1.745 0 0 1 2.467 2.468" style="fill:#eed9c4;fill-opacity:1;fill-rule:nonzero;stroke:#0c0c10;stroke-width:1.32292;stroke-dasharray:none;stroke-opacity:1" transform="rotate(-135 183.644 114.252) scale(.81139)"/><path d="M214.325 74.052a1.057 1.057 0 0 0-1.494 1.494 1.057 1.057 0 0 0 1.494-1.494zm-1.633 1.633a1.255 1.255 0 0 1 0-1.772 1.254 1.254 0 0 1 1.772 0 1.254 1.254 0 0 1 0 1.772 1.254 1.254 0 0 1-1.772 0M236.071 69.373c0 14.112-11.739 26.105-26.167 26.105-2.386 0-4.73-.351-6.997-.988a2.473 2.473 0 0 0-2.99 1.514 2.481 2.481 0 0 0 1.664 3.257c2.698.753 5.487 1.17 8.323 1.17 17.162 0 31.123-14.124 31.123-31.058h-4.956" style="fill:#eed9c4;fill-opacity:1;fill-rule:nonzero;stroke:#0c0c10;stroke-width:1.32292;stroke-dasharray:none;stroke-opacity:1" transform="rotate(-135 183.644 114.252) scale(.81139)"/><path d="M210.18 98.298c-1.704 0-3.413-.148-5.078-.438a.688.688 0 0 1 .237-1.357c1.587.277 3.216.418 4.84.418 11.607 0 22.134-7.302 26.196-18.17a27.818 27.818 0 0 0 1.308-4.743.688.688 0 1 1 1.354.246 29.224 29.224 0 0 1-1.372 4.98c-4.262 11.402-15.307 19.064-27.485 19.064" style="fill:#eed9c4;fill-opacity:1;fill-rule:nonzero;stroke:#0c0c10;stroke-width:1.32292;stroke-dasharray:none;stroke-opacity:1" transform="rotate(-135 183.644 114.252) scale(.81139)"/><path d="M212.942 97.746a2.382 2.382 0 1 1-4.765 0 2.382 2.382 0 0 1 4.765 0" style="fill:#eed9c4;fill-opacity:1;fill-rule:nonzero;stroke:#0c0c10;stroke-width:1.32292;stroke-dasharray:none;stroke-opacity:1" transform="rotate(-135 183.644 114.252) scale(.81139)"/><path d="M213.478 94.828a.54.54 0 0 0-.765 0l-2.536 2.536.765.764 2.536-2.536a.54.54 0 0 0 0-.764" style="fill:#eed9c4;fill-opacity:1;fill-rule:nonzero;stroke:#0c0c10;stroke-width:1.32292;stroke-dasharray:none;stroke-opacity:1" transform="rotate(-135 183.644 114.252) scale(.81139)"/><path d="M207.641 100.665a.54.54 0 0 0 .764 0l2.537-2.537-.765-.764-2.536 2.536a.54.54 0 0 0 0 .765" style="fill:#eed9c4;fill-opacity:1;fill-rule:nonzero;stroke:#0c0c10;stroke-width:1.32292;stroke-dasharray:none;stroke-opacity:1" transform="rotate(-135 183.644 114.252) scale(.81139)"/><path d="M211.793 98.98a1.744 1.744 0 1 1-2.467-2.468 1.744 1.744 0 0 1 2.467 2.468" style="fill:#eed9c4;fill-opacity:1;fill-rule:nonzero;stroke:#0c0c10;stroke-width:1.32292;stroke-dasharray:none;stroke-opacity:1" transform="rotate(-135 183.644 114.252) scale(.81139)"/><path d="M211.306 97a1.057 1.057 0 0 0-1.494 1.493 1.058 1.058 0 0 0 1.494 0 1.058 1.058 0 0 0 0-1.494zm-1.633 1.632a1.254 1.254 0 0 1 1.772-1.772 1.254 1.254 0 0 1 0 1.772 1.254 1.254 0 0 1-1.772 0" style="fill:#eed9c4;fill-opacity:1;fill-rule:nonzero;stroke:#0c0c10;stroke-width:1.32292;stroke-dasharray:none;stroke-opacity:1" transform="rotate(-135 183.644 114.252) scale(.81139)"/></g><path d="M1130.71 754.816a21.566 21.566 0 0 1-14.017-8.183l-53.565 199.91c-2.972 11.089 5.345 13.318 5.345 13.318l-4.27 43.16 66.506-248.205M1210.401 946.543l-53.581-199.968a21.562 21.562 0 0 1-14.001 8.237l66.506 248.21-4.27-43.16s8.318-2.23 5.346-13.32M1159.276 730.532c0 12.433-10.079 22.512-22.512 22.512-12.432 0-22.51-10.079-22.51-22.512 0-12.432 10.078-22.51 22.51-22.51 12.433 0 22.512 10.078 22.512 22.51" style="fill:#1e1c1b;fill-opacity:1;fill-rule:nonzero;stroke:none;stroke-width:.133333" transform="matrix(.26458 0 0 .26458 310 0)"/><path d="M1144.073 730.532a7.309 7.309 0 1 1-14.617.001 7.309 7.309 0 0 1 14.617-.001" style="fill:#fff;fill-opacity:1;fill-rule:nonzero;stroke:none;stroke-width:.133333" transform="matrix(.26458 0 0 .26458 310 0)"/><path d="M1145.901 721.396a12.845 12.845 0 0 0-9.137-3.784c-7.124 0-12.92 5.796-12.92 12.921a12.84 12.84 0 0 0 3.784 9.136 12.845 12.845 0 0 0 9.136 3.784c7.125 0 12.921-5.796 12.921-12.921a12.84 12.84 0 0 0-3.784-9.136zm-19.433 19.433a14.466 14.466 0 0 1-4.264-10.296c0-8.029 6.532-14.561 14.56-14.561 3.89 0 7.547 1.513 10.297 4.264a14.471 14.471 0 0 1 4.264 10.296c0 8.03-6.532 14.561-14.561 14.561-3.89 0-7.545-1.514-10.296-4.264" style="fill:#fff;fill-opacity:1;fill-rule:nonzero;stroke:none;stroke-width:.133333" transform="matrix(.26458 0 0 .26458 310 0)"/><path d="m328.584 118.613-68.47 187.744-11.734-4.27L315.336 118.5l13.248.113M328.584 118.613l67.921 187.744 11.736-4.27L341.833 118.5l-13.249.113M330.421 37.333h-4.157c-3.257 0-5.397 2.287-5.397 5.546v34.454h16V42.88c0-3.259-3.187-5.546-6.446-5.546" style="fill:#1e1c1b;fill-opacity:1;fill-rule:nonzero;stroke:none;stroke-width:.133333" transform="matrix(.26458 0 0 .26458 310 0)"/><path d="M278.341 253.443c0 6.706-5.436 12.142-12.141 12.142s-12.141-5.436-12.141-12.142c0-6.706 5.436-12.142 12.141-12.142s12.141 5.436 12.141 12.142" style="fill:#1e1c1b;fill-opacity:1;fill-rule:nonzero;stroke:none;stroke-width:.133333" transform="matrix(.26458 0 0 .26458 310 0)"/><path d="M266.2 246.803a6.152 6.152 0 0 0-6.144 6.145 6.152 6.152 0 0 0 6.144 6.145 6.152 6.152 0 0 0 6.145-6.145 6.152 6.152 0 0 0-6.145-6.145zm0 14.372c-4.535 0-8.225-3.691-8.225-8.227 0-4.536 3.69-8.227 8.225-8.227 4.536 0 8.227 3.691 8.227 8.227 0 4.536-3.691 8.227-8.227 8.227" style="fill:#fff;fill-opacity:1;fill-rule:nonzero;stroke:none;stroke-width:.133333" transform="matrix(.26458 0 0 .26458 310 0)"/><path d="M402.184 253.443c0 6.706-5.435 12.142-12.141 12.142S377.9 260.15 377.9 253.443c0-6.706 5.436-12.142 12.142-12.142 6.706 0 12.141 5.436 12.141 12.142" style="fill:#1e1c1b;fill-opacity:1;fill-rule:nonzero;stroke:none;stroke-width:.133333" transform="matrix(.26458 0 0 .26458 310 0)"/><path d="M390.043 246.803a6.152 6.152 0 0 0-6.144 6.145 6.152 6.152 0 0 0 6.144 6.145 6.152 6.152 0 0 0 6.145-6.145 6.152 6.152 0 0 0-6.145-6.145zm0 14.372c-4.535 0-8.226-3.691-8.226-8.227 0-4.536 3.691-8.227 8.226-8.227 4.536 0 8.226 3.691 8.226 8.227 0 4.536-3.69 8.227-8.226 8.227" style="fill:#fff;fill-opacity:1;fill-rule:nonzero;stroke:none;stroke-width:.133333" transform="matrix(.26458 0 0 .26458 310 0)"/><path d="M332.4 115.377h-7.632V68.2h7.632v47.177" style="fill:#1e1c1b;fill-opacity:1;fill-rule:nonzero;stroke:none;stroke-width:.133333" transform="matrix(.26458 0 0 .26458 310 0)"/><path d="M345.576 119.193c0 9.388-7.61 16.999-16.997 16.999-9.388 0-16.999-7.61-16.999-16.999 0-9.388 7.61-16.998 16.999-16.998 9.386 0 16.997 7.61 16.997 16.998" style="fill:#1e1c1b;fill-opacity:1;fill-rule:nonzero;stroke:none;stroke-width:.133333" transform="matrix(.26458 0 0 .26458 310 0)"/><path d="M328.579 109.48c-4.975 0-9.02 4.047-9.02 9.02s4.045 9.019 9.02 9.019c4.973 0 9.018-4.046 9.018-9.019s-4.045-9.02-9.018-9.02zm0 20.12c-6.122 0-11.102-4.979-11.102-11.1 0-6.121 4.98-11.101 11.102-11.101 6.12 0 11.101 4.98 11.101 11.101s-4.981 11.1-11.101 11.1" style="fill:#fff;fill-opacity:1;fill-rule:nonzero;stroke:none;stroke-width:.133333" transform="matrix(.26458 0 0 .26458 310 0)"/><path d="m254.753 331.807 6.244-29.14h-12.489zM395.752 285.01h12.49v17.346h-12.49v-17.345M405.45 314.667l2.602-12h-12.488l2.601 12h7.286" style="fill:#1e1c1b;fill-opacity:1;fill-rule:nonzero;stroke:none;stroke-width:.133333" transform="matrix(.26458 0 0 .26458 310 0)"/><path d="m403.91 327.325-1.7 3.991a.295.295 0 0 1-.542 0l-1.7-3.99a.308.308 0 0 1-.023-.115v-12.776h3.99v12.776a.285.285 0 0 1-.024.114M733.477 118.613l-68.469 187.744-11.735-4.27L720.23 118.5l13.248.113" style="fill:#1e1c1b;fill-opacity:1;fill-rule:nonzero;stroke:none;stroke-width:.133333" transform="matrix(.26458 0 0 .26458 310 0)"/><path d="M733.477 118.613 801.4 306.357l11.736-4.27L746.727 118.5l-13.25.113M735.504 37.333h-4.157c-3.259 0-5.147 2.287-5.147 5.546v34.454h16V42.88c0-3.259-3.437-5.546-6.696-5.546" style="fill:#1e1c1b;fill-opacity:1;fill-rule:nonzero;stroke:none;stroke-width:.133333" transform="matrix(.26458 0 0 .26458 310 0)"/><path d="M737.293 115.377h-7.632V68.2h7.632v47.177" style="fill:#1e1c1b;fill-opacity:1;fill-rule:nonzero;stroke:none;stroke-width:.133333" transform="matrix(.26458 0 0 .26458 310 0)"/><path d="M750.659 119.193c0 9.388-7.611 16.999-16.999 16.999-9.388 0-16.997-7.61-16.997-16.999 0-9.388 7.609-16.998 16.997-16.998s16.999 7.61 16.999 16.998" style="fill:#1e1c1b;fill-opacity:1;fill-rule:nonzero;stroke:none;stroke-width:.133333" transform="matrix(.26458 0 0 .26458 310 0)"/><path d="M733.66 109.48c-4.973 0-9.02 4.047-9.02 9.02s4.047 9.019 9.02 9.019c4.975 0 9.02-4.046 9.02-9.019s-4.045-9.02-9.02-9.02zm0 20.12c-6.121 0-11.101-4.979-11.101-11.1 0-6.121 4.98-11.101 11.101-11.101s11.101 4.98 11.101 11.101-4.98 11.1-11.101 11.1" style="fill:#fff;fill-opacity:1;fill-rule:nonzero;stroke:none;stroke-width:.133333" transform="matrix(.26458 0 0 .26458 310 0)"/><path d="m659.835 331.807 6.244-29.14H653.59zM800.645 285.01h12.49v17.346h-12.49v-17.345M810.532 314.667l2.603-12h-12.49l2.603 12h7.284" style="fill:#1e1c1b;fill-opacity:1;fill-rule:nonzero;stroke:none;stroke-width:.133333" transform="matrix(.26458 0 0 .26458 310 0)"/><path d="m808.804 327.325-1.7 3.991a.295.295 0 0 1-.543 0l-1.7-3.99a.308.308 0 0 1-.022-.115v-12.776h3.989v12.776a.285.285 0 0 1-.024.114M813.948 300.275a7.375 7.375 0 1 1-14.75 0 7.376 7.376 0 0 1 14.75 0" style="fill:#1e1c1b;fill-opacity:1;fill-rule:nonzero;stroke:none;stroke-width:.133333" transform="matrix(.26458 0 0 .26458 310 0)"/><path d="M806.573 296.241a3.737 3.737 0 0 0-3.733 3.732 3.737 3.737 0 0 0 3.733 3.734 3.737 3.737 0 0 0 3.732-3.734 3.737 3.737 0 0 0-3.732-3.732zm0 8.73a5.002 5.002 0 0 1-4.997-4.998 5.003 5.003 0 0 1 4.997-4.997 5.003 5.003 0 0 1 4.996 4.997 5.002 5.002 0 0 1-4.996 4.998" style="fill:#fff;fill-opacity:1;fill-rule:nonzero;stroke:none;stroke-width:.133333" transform="matrix(.26458 0 0 .26458 310 0)"/><path d="M667.21 300.275a7.374 7.374 0 0 1-7.375 7.374 7.374 7.374 0 0 1-7.375-7.374 7.374 7.374 0 0 1 7.375-7.375 7.374 7.374 0 0 1 7.374 7.375" style="fill:#1e1c1b;fill-opacity:1;fill-rule:nonzero;stroke:none;stroke-width:.133333" transform="matrix(.26458 0 0 .26458 310 0)"/><path d="M659.835 296.241a3.737 3.737 0 0 0-3.732 3.732 3.737 3.737 0 0 0 3.732 3.734 3.736 3.736 0 0 0 3.732-3.734 3.736 3.736 0 0 0-3.732-3.732zm0 8.73a5.002 5.002 0 0 1-4.996-4.998 5.002 5.002 0 0 1 4.996-4.996 5.003 5.003 0 0 1 4.997 4.996 5.003 5.003 0 0 1-4.997 4.998M671.245 271.07a2.6 2.6 0 0 1-1.554-3.335l28.474-78.235a2.6 2.6 0 1 1 4.89 1.78l-28.475 78.235a2.6 2.6 0 0 1-3.335 1.554M795.163 271.07a2.6 2.6 0 0 0 1.554-3.335L768.243 189.5a2.6 2.6 0 1 0-4.89 1.78l28.475 78.235a2.6 2.6 0 0 0 3.335 1.554" style="fill:#fff;fill-opacity:1;fill-rule:nonzero;stroke:none;stroke-width:.133333" transform="matrix(.26458 0 0 .26458 310 0)"/><path d="M733.377 70.45c-17.217 0-31.224 14.007-31.224 31.225 0 17.217 14.007 31.225 31.224 31.225 17.218 0 31.224-14.008 31.224-31.225 0-17.218-14.006-31.224-31.224-31.224zm0 67.303c-19.893 0-36.077-16.184-36.077-36.078 0-19.894 16.184-36.078 36.077-36.078 19.894 0 36.078 16.184 36.078 36.078 0 19.894-16.184 36.078-36.078 36.078M333.223 790.139l-68.47 187.745-11.736-4.272 66.956-183.587 13.25.114" style="fill:#1e1c1b;fill-opacity:1;fill-rule:nonzero;stroke:none;stroke-width:.133333" transform="matrix(.26458 0 0 .26458 310 0)"/><path d="m333.223 790.139 67.921 187.745 11.735-4.272-66.408-183.587-13.248.114M335.625 708h-4.157c-3.259 0-5.268 3.145-5.268 6.404v34.93h16v-34.93c0-3.259-3.316-6.404-6.575-6.404" style="fill:#1e1c1b;fill-opacity:1;fill-rule:nonzero;stroke:none;stroke-width:.133333" transform="matrix(.26458 0 0 .26458 310 0)"/><path d="M379.533 898.667H262.2v-1.334h-15.83c-1.5 0-2.837.419-2.837 1.919v1.915c0 1.5 1.338 2.833 2.838 2.833H262.2v-1.333h117.333v-4M337.037 786.904h-7.63v-47.179h7.63v47.179" style="fill:#1e1c1b;fill-opacity:1;fill-rule:nonzero;stroke:none;stroke-width:.133333" transform="matrix(.26458 0 0 .26458 310 0)"/><path d="M350.78 790.719c0 9.388-7.61 16.998-16.999 16.998-9.388 0-16.997-7.61-16.997-16.998 0-9.387 7.61-16.998 16.997-16.998 9.388 0 16.999 7.611 16.999 16.998" style="fill:#1e1c1b;fill-opacity:1;fill-rule:nonzero;stroke:none;stroke-width:.133333" transform="matrix(.26458 0 0 .26458 310 0)"/><path d="M333.781 781.007c-4.973 0-9.018 4.045-9.018 9.018 0 4.974 4.045 9.02 9.018 9.02 4.975 0 9.02-4.046 9.02-9.02 0-4.973-4.045-9.018-9.02-9.018zm0 20.12c-6.121 0-11.101-4.98-11.101-11.102 0-6.121 4.98-11.101 11.101-11.101 6.122 0 11.102 4.98 11.102 11.101 0 6.122-4.98 11.102-11.102 11.102" style="fill:#fff;fill-opacity:1;fill-rule:nonzero;stroke:none;stroke-width:.133333" transform="matrix(.26458 0 0 .26458 310 0)"/><path d="m259.956 1002.473 6.244-29.14h-12.488zM400.39 956.537h12.489v17.344H400.39v-17.344" style="fill:#1e1c1b;fill-opacity:1;fill-rule:nonzero;stroke:none;stroke-width:.133333" transform="matrix(.26458 0 0 .26458 310 0)"/><path d="m410.653 986.667 2.603-13.334h-12.488l2.601 13.334h7.284" style="fill:#1e1c1b;fill-opacity:1;fill-rule:nonzero;stroke:none;stroke-width:.133333" transform="matrix(.26458 0 0 .26458 310 0)"/><path d="m408.548 998.852-1.699 3.99a.296.296 0 0 1-.544 0l-1.698-3.99a.293.293 0 0 1-.024-.116v-12.775h3.989v12.775c0 .04-.008.079-.024.116M414.07 971.8a7.375 7.375 0 1 1-7.375-7.375 7.374 7.374 0 0 1 7.374 7.375" style="fill:#1e1c1b;fill-opacity:1;fill-rule:nonzero;stroke:none;stroke-width:.133333" transform="matrix(.26458 0 0 .26458 310 0)"/><path d="M406.695 967.767a3.737 3.737 0 0 0-3.734 3.733 3.737 3.737 0 0 0 3.734 3.732 3.737 3.737 0 0 0 3.732-3.732 3.737 3.737 0 0 0-3.732-3.733zm0 8.73a5.003 5.003 0 0 1-4.998-4.997 5.002 5.002 0 0 1 4.998-4.997 5.003 5.003 0 0 1 4.997 4.997 5.004 5.004 0 0 1-4.997 4.997" style="fill:#fff;fill-opacity:1;fill-rule:nonzero;stroke:none;stroke-width:.133333" transform="matrix(.26458 0 0 .26458 310 0)"/><path d="M267.332 971.8a7.376 7.376 0 1 1-14.753 0 7.376 7.376 0 0 1 14.753 0" style="fill:#1e1c1b;fill-opacity:1;fill-rule:nonzero;stroke:none;stroke-width:.133333" transform="matrix(.26458 0 0 .26458 310 0)"/><path d="M259.956 967.767a3.737 3.737 0 0 0-3.732 3.733 3.737 3.737 0 0 0 3.732 3.732 3.737 3.737 0 0 0 3.733-3.732 3.737 3.737 0 0 0-3.733-3.733zm0 8.729a5.002 5.002 0 0 1-4.996-4.996 5.002 5.002 0 0 1 4.996-4.997 5.002 5.002 0 0 1 4.997 4.997 5.002 5.002 0 0 1-4.997 4.996M271.367 942.595a2.6 2.6 0 0 1-1.555-3.335l28.475-78.235a2.6 2.6 0 1 1 4.89 1.78L274.7 941.04a2.601 2.601 0 0 1-3.334 1.555M395.284 942.595a2.6 2.6 0 0 0 1.555-3.335l-28.475-78.235a2.6 2.6 0 1 0-4.89 1.78l28.475 78.235a2.601 2.601 0 0 0 3.335 1.555" style="fill:#fff;fill-opacity:1;fill-rule:nonzero;stroke:none;stroke-width:.133333" transform="matrix(.26458 0 0 .26458 310 0)"/><path d="M333.499 741.977c-17.218 0-31.224 14.007-31.224 31.224 0 17.216 14.006 31.224 31.224 31.224 17.217 0 31.224-14.008 31.224-31.224 0-17.217-14.007-31.224-31.224-31.224zm0 67.302c-19.894 0-36.078-16.184-36.078-36.078 0-19.893 16.184-36.077 36.078-36.077 19.893 0 36.077 16.184 36.077 36.077 0 19.894-16.184 36.078-36.077 36.078M1137.039 118.613l-68.47 187.744-11.736-4.27L1123.79 118.5l13.25.113" style="fill:#1e1c1b;fill-opacity:1;fill-rule:nonzero;stroke:none;stroke-width:.133333" transform="matrix(.26458 0 0 .26458 310 0)"/><path d="m1137.039 118.613 67.921 187.744 11.735-4.27-66.408-183.587-13.248.113M1139.064 37.333h-4.157c-3.258 0-6.04 2.287-6.04 5.546V92h17.333V42.879c0-3.259-3.877-5.546-7.136-5.546" style="fill:#1e1c1b;fill-opacity:1;fill-rule:nonzero;stroke:none;stroke-width:.133333" transform="matrix(.26458 0 0 .26458 310 0)"/><path d="M1140.853 115.377h-7.63V68.2h7.63v47.177" style="fill:#1e1c1b;fill-opacity:1;fill-rule:nonzero;stroke:none;stroke-width:.133333" transform="matrix(.26458 0 0 .26458 310 0)"/><path d="M1154.219 119.193c0 9.388-7.611 16.999-16.998 16.999-9.388 0-16.998-7.61-16.998-16.999 0-9.388 7.61-16.998 16.998-16.998 9.387 0 16.998 7.61 16.998 16.998" style="fill:#1e1c1b;fill-opacity:1;fill-rule:nonzero;stroke:none;stroke-width:.133333" transform="matrix(.26458 0 0 .26458 310 0)"/><path d="M1137.221 109.48c-4.974 0-9.02 4.047-9.02 9.02s4.046 9.019 9.02 9.019c4.974 0 9.019-4.046 9.019-9.019s-4.045-9.02-9.019-9.02zm0 20.12c-6.121 0-11.101-4.979-11.101-11.1 0-6.121 4.98-11.101 11.101-11.101 6.12 0 11.1 4.98 11.1 11.101s-4.98 11.1-11.1 11.1" style="fill:#fff;fill-opacity:1;fill-rule:nonzero;stroke:none;stroke-width:.133333" transform="matrix(.26458 0 0 .26458 310 0)"/><path d="m1063.395 331.807 6.244-29.14h-12.488zM1204.207 285.01h12.488v17.346h-12.488v-17.345M1214.093 314.667l2.602-12h-12.488l2.601 12h7.285" style="fill:#1e1c1b;fill-opacity:1;fill-rule:nonzero;stroke:none;stroke-width:.133333" transform="matrix(.26458 0 0 .26458 310 0)"/><path d="m1212.364 327.325-1.699 3.991a.295.295 0 0 1-.542 0l-1.7-3.99a.285.285 0 0 1-.024-.115v-12.776h3.989v12.776c0 .038-.01.078-.024.114M1136.764 176.977c-13.772 0-24.976-11.644-24.976-24.977h3.673c0 12 9.556 21.304 21.303 21.304 11.747 0 21.304-9.304 21.304-21.304h3.673c0 13.333-11.204 24.977-24.977 24.977M731.813 790.139l-68.469 187.745-11.735-4.272 66.955-183.587 13.25.114" style="fill:#1e1c1b;fill-opacity:1;fill-rule:nonzero;stroke:none;stroke-width:.133333" transform="matrix(.26458 0 0 .26458 310 0)"/><path d="m731.813 790.139 67.922 187.745 11.734-4.272-66.408-183.587-13.248.114M733.839 729.333h-4.158c-3.257 0-6.148 2.627-6.148 5.886v34.114h17.334V735.22c0-3.259-3.77-5.886-7.028-5.886M658.17 1002.473l6.245-29.14h-12.488z" style="fill:#1e1c1b;fill-opacity:1;fill-rule:nonzero;stroke:none;stroke-width:.133333" transform="matrix(.26458 0 0 .26458 310 0)"/><path d="M798.981 956.537h12.488v17.344h-12.488v-17.344" style="fill:#1e1c1b;fill-opacity:1;fill-rule:nonzero;stroke:none;stroke-width:.133333" transform="matrix(.26458 0 0 .26458 310 0)"/><path d="m808.868 986.667 2.601-13.334h-12.488l2.602 13.334h7.285" style="fill:#1e1c1b;fill-opacity:1;fill-rule:nonzero;stroke:none;stroke-width:.133333" transform="matrix(.26458 0 0 .26458 310 0)"/><path d="m807.14 998.852-1.7 3.99a.295.295 0 0 1-.543 0l-1.7-3.99a.293.293 0 0 1-.024-.116v-12.775h3.99v12.775c0 .04-.008.079-.023.116M744.548 827.144h-26.537l-2.791-54.137a2.95 2.95 0 0 1 2.947-3.102h26.225a2.95 2.95 0 0 1 2.947 3.102l-2.791 54.137" style="fill:#1e1c1b;fill-opacity:1;fill-rule:nonzero;stroke:none;stroke-width:.133333" transform="matrix(.26458 0 0 .26458 310 0)"/><path d="M722.953 775.499a2.212 2.212 0 1 1-4.423 0 2.212 2.212 0 0 1 4.423 0M744.808 775.499a2.211 2.211 0 1 1-4.423.001 2.211 2.211 0 0 1 4.423-.001" style="fill:#fff;fill-opacity:1;fill-rule:nonzero;stroke:none;stroke-width:.133333" transform="matrix(.26458 0 0 .26458 310 0)"/><path d="M651.448 968.288a2.6 2.6 0 0 1-1.555-3.335l8.543-23.47a2.602 2.602 0 0 1 4.89 1.78l-8.543 23.47a2.6 2.6 0 0 1-3.335 1.555M817.05 956.19c0 6.706-5.437 12.142-12.142 12.142-6.705 0-12.141-5.436-12.141-12.142 0-6.706 5.436-12.142 12.141-12.142s12.141 5.436 12.141 12.142" style="fill:#1e1c1b;fill-opacity:1;fill-rule:nonzero;stroke:none;stroke-width:.133333" transform="matrix(.26458 0 0 .26458 310 0)"/><path d="M804.908 949.55a6.152 6.152 0 0 0-6.144 6.145 6.152 6.152 0 0 0 6.144 6.145 6.153 6.153 0 0 0 6.145-6.145 6.153 6.153 0 0 0-6.145-6.146zm0 14.371c-4.536 0-8.225-3.69-8.225-8.226 0-4.536 3.689-8.227 8.225-8.227s8.227 3.69 8.227 8.227c0 4.536-3.691 8.226-8.227 8.226" style="fill:#fff;fill-opacity:1;fill-rule:nonzero;stroke:none;stroke-width:.133333" transform="matrix(.26458 0 0 .26458 310 0)"/><path d="m248.19 627.824 11.737 4.272 68.469-187.745-13.25-.114-66.955 183.587M341.644 444.237l-13.248.114 67.921 187.745 11.735-4.272-66.408-183.587M330.421 384h-4.157c-3.257 0-5.397 2.172-5.397 5.43V424h16v-34.57c0-3.258-3.187-5.43-6.446-5.43" style="fill:#1e1c1b;fill-opacity:1;fill-rule:nonzero;stroke:none;stroke-width:.133333" transform="matrix(.26458 0 0 .26458 310 0)"/><path d="m254.753 657.14 6.244-29.14h-12.489zM405.45 641.333 408.053 628h-12.488l2.601 13.333h7.286" style="fill:#1e1c1b;fill-opacity:1;fill-rule:nonzero;stroke:none;stroke-width:.133333" transform="matrix(.26458 0 0 .26458 310 0)"/><path d="m403.91 652.612-1.7 3.99a.295.295 0 0 1-.542 0l-1.7-3.99a.308.308 0 0 1-.023-.115v-12.776h3.99v12.776a.285.285 0 0 1-.024.115M341.319 480.904H314.78l-2.79-54.136a2.95 2.95 0 0 1 2.946-3.101h26.226a2.95 2.95 0 0 1 2.946 3.101l-2.79 54.136" style="fill:#1e1c1b;fill-opacity:1;fill-rule:nonzero;stroke:none;stroke-width:.133333" transform="matrix(.26458 0 0 .26458 310 0)"/><path d="M319.536 429.712a2.212 2.212 0 1 1-4.424-.003 2.212 2.212 0 0 1 4.424.003M341.39 429.712a2.211 2.211 0 1 1-4.422-.001 2.211 2.211 0 0 1 4.423.001" style="fill:#fff;fill-opacity:1;fill-rule:nonzero;stroke:none;stroke-width:.133333" transform="matrix(.26458 0 0 .26458 310 0)"/><path d="M246.99 622.501a2.603 2.603 0 0 1-1.555-3.334l8.542-23.471a2.603 2.603 0 0 1 4.89 1.779l-8.542 23.47a2.604 2.604 0 0 1-3.336 1.556M410.81 619.167l-8.543-23.471a2.603 2.603 0 0 0-4.891 1.779l8.543 23.47a2.603 2.603 0 0 0 4.89-1.778M359.533 513.333h-28V496H326.2v17.333h-28V516h28v16h5.333v-16h28v-2.667M1137.704 381.333h-3.908c-3.063 0-4.93 2.526-4.93 5.588V420h14.667v-33.079c0-3.062-2.766-5.588-5.829-5.588M1150.967 439.135l-74.175 219.157 28.959-201.004c1.51-10.48 10.504-18.25 21.09-18.22l24.126.067" style="fill:#1e1c1b;fill-opacity:1;fill-rule:nonzero;stroke:none;stroke-width:.133333" transform="matrix(.26458 0 0 .26458 310 0)"/><path d="M1138.661 456.867a3.213 3.213 0 1 1-6.426-.002 3.213 3.213 0 0 1 6.426.002" style="fill:#fff;fill-opacity:1;fill-rule:nonzero;stroke:none;stroke-width:.133333" transform="matrix(.26458 0 0 .26458 310 0)"/><path d="M1139.163 441.29h-7.312v-24.7h7.312v24.7" style="fill:#1e1c1b;fill-opacity:1;fill-rule:nonzero;stroke:none;stroke-width:.133333" transform="matrix(.26458 0 0 .26458 310 0)"/><path d="m1144.172 439.068-7.652.021 8.688.024c-.345-.016-.688-.046-1.036-.045M1194.2 641.333V616h-6.192l-22.745-158.295c-1.094-7.585-6.115-13.94-12.815-16.756l-15.928 47.488 51.604 152.896h6.076" style="fill:#1e1c1b;fill-opacity:1;fill-rule:nonzero;stroke:none;stroke-width:.133333" transform="matrix(.26458 0 0 .26458 310 0)"/><path d="m1192.71 654.841-1.1 3.083a.555.555 0 0 1-1.038.016l-1.215-3.09a.564.564 0 0 1-.037-.203v-18.415c0-.307.248-.555.555-.555h2.313c.307 0 .555.248.555.555v18.423a.563.563 0 0 1-.032.186" style="fill:#1e1c1b;fill-opacity:1;fill-rule:nonzero;stroke:none;stroke-width:.133333" transform="matrix(.26458 0 0 .26458 310 0)"/><path d="M1196.737 630.001a5.87 5.87 0 1 1-11.739 0 5.87 5.87 0 0 1 11.74 0" style="fill:#1e1c1b;fill-opacity:1;fill-rule:nonzero;stroke:none;stroke-width:.133333" transform="matrix(.26458 0 0 .26458 310 0)"/><path d="M1190.868 626.863a3.142 3.142 0 0 0-3.139 3.138 3.142 3.142 0 0 0 3.139 3.139 3.142 3.142 0 0 0 3.139-3.139 3.142 3.142 0 0 0-3.139-3.138zm0 7.256a4.122 4.122 0 0 1-4.117-4.118 4.122 4.122 0 0 1 4.117-4.117 4.122 4.122 0 0 1 4.117 4.117 4.122 4.122 0 0 1-4.117 4.118" style="fill:#fff;fill-opacity:1;fill-rule:nonzero;stroke:none;stroke-width:.133333" transform="matrix(.26458 0 0 .26458 310 0)"/><path d="M636.988 640.233h-10.679l-10.678-21.508V415.26c0-11.795 9.562-21.357 21.357-21.357v246.33" style="fill:#1e1c1b;fill-opacity:1;fill-rule:nonzero;stroke:none;stroke-width:.133333" transform="matrix(.26458 0 0 .26458 310 0)"/><path d="m630.223 654.597 3.382 5.204 3.383-5.204v-17.17h-6.765v17.17M875.928 415.241l5.204-3.382-5.204-3.383h-17.172v6.765h17.172M658.323 415.237c0 11.783-9.552 21.335-21.335 21.335-11.783 0-21.335-9.552-21.335-21.335 0-11.782 9.552-21.334 21.335-21.334 11.783 0 21.335 9.552 21.335 21.334" style="fill:#1e1c1b;fill-opacity:1;fill-rule:nonzero;stroke:none;stroke-width:.133333" transform="matrix(.26458 0 0 .26458 310 0)"/><path d="M862.2 409.333v-4.752l-21.724-9.914H646.004c8.31 2.666 14.043 10.666 14.043 20h-.164 199.65v-5.334h2.667" style="fill:#1e1c1b;fill-opacity:1;fill-rule:nonzero;stroke:none;stroke-width:.133333" transform="matrix(.26458 0 0 .26458 310 0)"/><path d="M830.561 390.468h-10.928v24.773h10.928v-24.773M612.867 610.667H638.2V600h-25.333v10.667" style="fill:#1e1c1b;fill-opacity:1;fill-rule:nonzero;stroke:none;stroke-width:.133333" transform="matrix(.26458 0 0 .26458 310 0)"/><path d="M648.344 404.143a2.042 2.042 0 0 0-2.89 0l-9.586 9.585 2.89 2.89 9.586-9.587a2.042 2.042 0 0 0 0-2.888" style="fill:#fff;fill-opacity:1;fill-rule:nonzero;stroke:none;stroke-width:.133333" transform="matrix(.26458 0 0 .26458 310 0)"/><path d="M626.283 426.203c.797.797 2.09.797 2.889 0l9.585-9.586-2.889-2.889-9.585 9.587a2.042 2.042 0 0 0 0 2.888" style="fill:#fff;fill-opacity:1;fill-rule:nonzero;stroke:none;stroke-width:.133333" transform="matrix(.26458 0 0 .26458 310 0)"/><path d="M641.975 419.835a6.593 6.593 0 1 1-9.32-9.324 6.593 6.593 0 0 1 9.32 9.324" style="fill:#fff;fill-opacity:1;fill-rule:nonzero;stroke:none;stroke-width:.133333" transform="matrix(.26458 0 0 .26458 310 0)"/><path d="M640.136 412.35a3.996 3.996 0 0 0-5.647 0 3.999 3.999 0 0 0 0 5.646 3.999 3.999 0 0 0 5.647 0 3.996 3.996 0 0 0 0-5.647zm-6.172 6.171a4.742 4.742 0 0 1 0-6.697 4.74 4.74 0 0 1 6.697 0 4.74 4.74 0 0 1 0 6.697 4.74 4.74 0 0 1-6.697 0M722.325 394.667c0 53.333-44.366 98.661-98.898 98.661-9.018 0-17.88-1.325-26.447-3.73-4.687-1.315-9.596 1.16-11.297 5.72-1.923 5.157.988 10.831 6.288 12.31 10.196 2.844 20.736 4.424 31.456 4.424 64.862 0 117.63-53.385 117.63-117.385h-18.732" style="fill:#1e1c1b;fill-opacity:1;fill-rule:nonzero;stroke:none;stroke-width:.133333" transform="matrix(.26458 0 0 .26458 310 0)"/><path d="M624.468 503.987c-6.44 0-12.897-.558-19.19-1.655a2.6 2.6 0 0 1-2.115-3.01 2.6 2.6 0 0 1 3.009-2.117c6 1.047 12.155 1.578 18.296 1.578 43.867 0 83.655-27.598 99.007-68.672a105.14 105.14 0 0 0 4.941-17.928 2.602 2.602 0 0 1 5.12.932 110.45 110.45 0 0 1-5.187 18.818c-16.108 43.098-57.854 72.054-103.881 72.054" style="fill:#fff;fill-opacity:1;fill-rule:nonzero;stroke:none;stroke-width:.133333" transform="matrix(.26458 0 0 .26458 310 0)"/><path d="M634.907 501.903a9.004 9.004 0 1 1-18.008-.003 9.004 9.004 0 0 1 18.008.003" style="fill:#1e1c1b;fill-opacity:1;fill-rule:nonzero;stroke:none;stroke-width:.133333" transform="matrix(.26458 0 0 .26458 310 0)"/><path d="M636.933 490.872a2.044 2.044 0 0 0-2.889 0l-9.585 9.587 2.889 2.888 9.585-9.586a2.042 2.042 0 0 0 0-2.889" style="fill:#fff;fill-opacity:1;fill-rule:nonzero;stroke:none;stroke-width:.133333" transform="matrix(.26458 0 0 .26458 310 0)"/><path d="M614.873 512.933c.798.798 2.091.798 2.888 0l9.587-9.586-2.89-2.888-9.585 9.585a2.042 2.042 0 0 0 0 2.89" style="fill:#fff;fill-opacity:1;fill-rule:nonzero;stroke:none;stroke-width:.133333" transform="matrix(.26458 0 0 .26458 310 0)"/><path d="M630.565 506.564a6.593 6.593 0 1 1-9.324-9.324 6.593 6.593 0 0 1 9.324 9.324" style="fill:#fff;fill-opacity:1;fill-rule:nonzero;stroke:none;stroke-width:.133333" transform="matrix(.26458 0 0 .26458 310 0)"/><path d="M628.727 499.08a3.996 3.996 0 0 0-5.647 0 3.996 3.996 0 0 0 0 5.647 3.999 3.999 0 0 0 5.647 0 3.999 3.999 0 0 0 0-5.647zm-6.172 6.17a4.74 4.74 0 0 1 0-6.695 4.74 4.74 0 0 1 6.697 0 4.74 4.74 0 0 1 0 6.696 4.74 4.74 0 0 1-6.697 0" style="fill:#1e1c1b;fill-opacity:1;fill-rule:nonzero;stroke:none;stroke-width:.133333" transform="matrix(.26458 0 0 .26458 310 0)"/><path d="M2842.573 1408.373c-32.64 398.8-186.76 402.414-186.76 402.414-15.653-298.254-154.48-538.374-251.986-672.187-41.694-57.253-90.894-108.373-144.627-154.427-349.44-299.386-177.12-761.4-177.12-761.4C1579.027 396.8 1617.093 891.72 1617.093 891.72c38.134 470.053-184.88 671.613-184.88 671.613-138.726-277.333-318.184-275.68-318.184-275.68 58.683 94.574 35.946 206.88 6.818 284.04-48.886 129.4-100.594 246.867-122.427 378.987l-.052-.107c-42.815 248.96-9.852 395.667-9.852 395.667h.053c70.238 518.933 491.511 706.32 689.924 764.32-118.64-64.12-253.64-184.733-283.4-404.773h-.053s-4.266-19.014-6.24-54.427c-2.333-40.627-1.586-102.987 12.147-182.8l.053.053c11.4-69.027 36.373-131.373 61.987-197.573 3.84-9.8 7.613-19.694 11.4-29.707 17.52-46.28 31.146-113.587-4.054-170.307 0 0 107.627-1.013 190.747 165.294 0 0 133.773-120.88 110.867-402.734 0 0-22.787-296.773 278.88-401.093 0 0-103.36 277.013 106.186 456.52 32.214 27.64 61.72 58.32 86.747 92.613 58.467 80.24 141.707 224.24 151.08 403.107 0 0 92.44-2.187 111.987-241.333 0 0 337.933 672.613-153.534 951.28 47.507-14.48 94.094-31.947 139.574-52.454 954.426-430.16 349.706-1633.853 349.706-1633.853M1005.775 1907.413l2.732-15.906-2.732 15.906" style="fill:#090a0f;fill-opacity:1;fill-rule:nonzero;stroke:none;stroke-width:.133333" transform="matrix(.26458 0 0 .26458 1716.646 0)"/><path d="M1008.507 1891.507c.632-3.667 1.222-7.107 1.778-10.334-.582 3.387-1.178 6.854-1.778 10.334M1003.47 1920.827l2.305-13.414c-.727 4.227-1.496 8.694-2.304 13.414M1000.797 1936.373c.936-5.44 1.828-10.64 2.674-15.546l-2.674 15.546M999.228 1945.507l-.044.253c.015-.08.028-.173.044-.253M998.604 1949.133c-.15.867-.252 1.467-.252 1.467.087-.493.167-.973.252-1.467M999.184 1945.76c-.192 1.12-.384 2.24-.58 3.373l.58-3.373M1000.797 1936.373l-1.569 9.134 1.57-9.134M1014.448 1856.933l1.332-7.746-1.332 7.746M1016.161 1846.973c.226-1.32.423-2.466.59-3.426-.163.933-.356 2.066-.59 3.426M1015.78 1849.187c.137-.8.263-1.52.381-2.214l-.381 2.214M1016.75 1843.547c.098-.574.185-1.08.258-1.494-.075.427-.16.934-.257 1.494M1017.27 1840.52c.109-.627.115-.667 0 0M1017.008 1842.053c.039-.226.073-.44.105-.626l-.105.626M1017.113 1841.427l.158-.907-.158.907" style="fill:#090a0f;fill-opacity:1;fill-rule:nonzero;stroke:none;stroke-width:.133333" transform="matrix(.26458 0 0 .26458 1716.646 0)"/></svg>